<svg width="20" height="20" viewBox="0 0 20 20" fill="none" xmlns="http://www.w3.org/2000/svg">
<path fill-rule="evenodd" clip-rule="evenodd" d="M15.3378 11.3287L12.3378 9.82875C12.0974 9.70897 11.8113 9.72685 11.5878 9.87562L10.2106 10.7944C9.57837 10.4468 9.05812 9.92658 8.71057 9.29438L9.62932 7.91719C9.7781 7.69361 9.79598 7.40755 9.6762 7.16719L8.1762 4.16719C8.04936 3.91104 7.78796 3.74926 7.50214 3.75C5.43107 3.75 3.75214 5.42893 3.75214 7.5C3.7573 12.0542 7.44793 15.7448 12.0021 15.75C14.0732 15.75 15.7521 14.0711 15.7521 12C15.7523 11.7158 15.5919 11.4559 15.3378 11.3287ZM12.0021 14.25C8.27593 14.2459 5.25627 11.2262 5.25214 7.5C5.25184 6.42735 6.00878 5.50363 7.06057 5.29313L8.13682 7.44938L7.22089 8.8125C7.08188 9.02102 7.0562 9.28518 7.15245 9.51656C7.68906 10.7919 8.70365 11.8065 9.97901 12.3431C10.2112 12.4437 10.4784 12.4204 10.6896 12.2812L12.0593 11.3681L14.2156 12.4444C14.0034 13.4975 13.0764 14.2537 12.0021 14.25ZM9.75214 0C6.3281 -0.000747204 3.15462 1.79466 1.39167 4.72997C-0.371277 7.66527 -0.465285 11.3102 1.14401 14.3325L0.0799487 17.5247C-0.0998185 18.0637 0.0404444 18.6581 0.442247 19.0599C0.844049 19.4617 1.4384 19.602 1.97745 19.4222L5.16964 18.3581C8.75152 20.2633 13.1388 19.7513 16.1858 17.0725C19.2327 14.3938 20.3025 10.1082 18.8718 6.31183C17.4412 2.51543 13.8092 0.00166416 9.75214 0ZM9.75214 18C8.3018 18.001 6.87691 17.6191 5.62151 16.8928C5.43558 16.785 5.21232 16.7621 5.00839 16.83L1.50214 18L2.6712 14.4937C2.73937 14.2899 2.71684 14.0667 2.60932 13.8806C0.73954 10.6479 1.27446 6.5624 3.91347 3.92005C6.55247 1.27772 10.6373 0.73763 13.8724 2.60333C17.1074 4.46903 18.6858 8.27517 17.7204 11.8827C16.755 15.4902 13.4866 17.9994 9.75214 18Z" fill="#00201A"/>
</svg>
